<?xml version="1.0" encoding="utf-8"?>
<!-- Generator: Adobe Illustrator 22.0.1, SVG Export Plug-In . SVG Version: 6.00 Build 0)  -->
<svg version="1.1" id="Layer_1" xmlns="http://www.w3.org/2000/svg" xmlns:xlink="http://www.w3.org/1999/xlink" x="0px" y="0px"
	 viewBox="0 0 22 26" style="enable-background:new 0 0 22 26;" xml:space="preserve">
<style type="text/css">
	.st0{fill-rule:evenodd;clip-rule:evenodd;fill:#34A5DD;}
</style>
<path class="st0" d="M18,9c-1.2,0-2.2,0.5-3,1.3L7.5,6C7.8,5.4,8,4.7,8,4c0-2.2-1.8-4-4-4S0,1.8,0,4c0,1.7,1.1,3.2,2.6,3.7v10.5
	C1.1,18.8,0,20.3,0,22c0,2.2,1.8,4,4,4s4-1.8,4-4c0-0.6-0.1-1.2-0.4-1.7l7.6-4.4C16,16.6,16.9,17,18,17c2.2,0,4-1.8,4-4S20.2,9,18,9
	z M14.2,14.2l-7.9,4.6c-0.5-0.3-1.1-0.6-1.7-0.7V7.9c0.5-0.1,1-0.3,1.4-0.5l8.1,4.7C14,12.4,14,12.7,14,13
	C14,13.4,14.1,13.8,14.2,14.2z"/>
</svg>
