<?xml version="1.0" encoding="utf-8"?>
<!-- Generator: Adobe Illustrator 22.0.1, SVG Export Plug-In . SVG Version: 6.00 Build 0)  -->
<svg version="1.1" id="Layer_1" xmlns="http://www.w3.org/2000/svg" xmlns:xlink="http://www.w3.org/1999/xlink" x="0px" y="0px"
	 width="80px" height="80px" viewBox="0 0 80 80" style="enable-background:new 0 0 80 80;" xml:space="preserve">
<style type="text/css">
	.st0{fill:#FFFFFF;}
</style>
<title>icon-modal-check</title>
<desc>Created with Sketch.</desc>
<g>
	<rect x="18" y="24" class="st0" width="20" height="2"/>
	<rect x="18" y="36" class="st0" width="20" height="2"/>
	<rect x="18" y="48" class="st0" width="12" height="2"/>
	<rect x="18" y="60" class="st0" width="10" height="2"/>
	<path class="st0" d="M54,39c-10.5,0-19,8.5-19,19s8.5,19,19,19s19-8.5,19-19S64.5,39,54,39z M37,58c0-9.4,7.6-17,17-17
		c3.2,0,6.2,0.9,8.8,2.5L43.6,71.4C39.6,68.3,37,63.4,37,58z M54,75c-3.2,0-6.2-0.9-8.8-2.5l19.2-27.9c4,3.1,6.6,8,6.6,13.4
		C71,67.4,63.4,75,54,75z"/>
	<path class="st0" d="M9,5h38v17h17v12h2V21l-1-1l-8-8l-8-8l-1-1H7v74h24v-2H9V5z M49,6.8L62.2,20H49V6.8z"/>
</g>
</svg>
