<?xml version="1.0" encoding="UTF-8"?>
<svg width="28px" height="20px" viewBox="0 0 28 20" version="1.1" xmlns="http://www.w3.org/2000/svg" xmlns:xlink="http://www.w3.org/1999/xlink">
    <!-- Generator: Sketch 46.2 (44496) - http://www.bohemiancoding.com/sketch -->
    <title>icon-intro-email</title>
    <desc>Created with Sketch.</desc>
    <defs>
        <polygon id="path-1" points="14.03435 20 0 20 0 0 14.03435 0 28.0687 0 28.0687 20"></polygon>
    </defs>
    <g id="icons" stroke="none" stroke-width="1" fill="none" fill-rule="evenodd">
        <g id="icon-intro-email">
            <g id="Page-1">
                <g id="Group-3">
                    <mask id="mask-2" fill="white">
                        <use xlink:href="#path-1"></use>
                    </mask>
                    <g id="Clip-2"></g>
                    <path d="M27.0687,18 C27.0687,18.552 26.6217,19 26.0687,19 L1.9997,19 C1.4477,19 0.9997,18.552 0.9997,18 L0.9997,2 C0.9997,1.448 1.4477,1 1.9997,1 L26.0687,1 C26.6217,1 27.0687,1.448 27.0687,2 L27.0687,18 Z M26.0687,0 L1.9997,0 C0.8977,0 -0.0003,0.897 -0.0003,2 L-0.0003,18 C-0.0003,19.103 0.8977,20 1.9997,20 L26.0687,20 C27.1727,20 28.0687,19.103 28.0687,18 L28.0687,2 C28.0687,0.897 27.1727,0 26.0687,0 L26.0687,0 Z" id="Fill-1" fill="#000000" mask="url(#mask-2)"></path>
                </g>
                <path d="M23.9505,5.2227 C23.7965,4.9917 23.4845,4.9317 23.2575,5.0837 L14.3835,10.9997 L13.6855,10.9997 L12.3105,10.0837 C12.3095,10.0827 12.3095,10.0817 12.3075,10.0817 L4.8115,5.0837 C4.5815,4.9307 4.2705,4.9927 4.1185,5.2227 C3.9655,5.4527 4.0275,5.7627 4.2575,5.9157 L11.1335,10.4997 L4.2575,15.0837 C4.0275,15.2377 3.9655,15.5477 4.1185,15.7777 C4.2145,15.9217 4.3735,15.9997 4.5345,15.9997 C4.6305,15.9997 4.7265,15.9727 4.8115,15.9157 L12.0345,11.1007 L13.2575,11.9157 C13.3395,11.9707 13.4355,11.9997 13.5345,11.9997 L14.5345,11.9997 C14.6335,11.9997 14.7295,11.9707 14.8115,11.9157 L16.0345,11.1007 L23.2575,15.9157 C23.3425,15.9727 23.4385,15.9997 23.5345,15.9997 C23.6955,15.9997 23.8535,15.9217 23.9505,15.7777 C24.1035,15.5477 24.0415,15.2377 23.8115,15.0837 L16.9355,10.4997 L23.8115,5.9157 C24.0415,5.7627 24.1035,5.4527 23.9505,5.2227" id="Fill-4" fill="#000000"></path>
            </g>
        </g>
    </g>
</svg>